<?xml version="1.0" standalone="no"?><!DOCTYPE svg PUBLIC "-//W3C//DTD SVG 1.1//EN" "http://www.w3.org/Graphics/SVG/1.1/DTD/svg11.dtd"><svg t="1490891648575" class="icon" style="" viewBox="0 0 1024 1024" version="1.1" xmlns="http://www.w3.org/2000/svg" p-id="2355" xmlns:xlink="http://www.w3.org/1999/xlink" width="200" height="200"><defs><style type="text/css"></style></defs><path d="M226.965222 629.119441c0 35.272341 21.502733 84.285638 123.834376 84.285638 102.323457 0 189.175547-103.167684 189.175547-103.167684s-117.561509-65.715701-204.6551-60.223616C248.210082 555.583634 226.965222 593.855286 226.965222 629.119441z" p-id="2356"></path><path d="M512.01535 0.028653c-282.753829 0-511.99386 229.224682-511.99386 511.978511 0 282.738479 229.240031 511.963161 511.99386 511.963161 282.7262 0 511.963161-229.224682 511.963161-511.963161C1023.978511 229.253334 794.741549 0.028653 512.01535 0.028653zM898.167107 781.699512 608.194876 644.221394c0 0-54.845119 60.676941-110.776989 87.355557-55.93494 26.686802-120.190383 43.326784-189.691293 26.881231-69.563332-16.382109-118.90511-60.857043-110.394273-142.970202 8.511861-82.105996 96.254228-110.394273 168.44234-110.394273 72.180949 0 209.205743 46.771233 209.205743 46.771233s11.511171-25.780153 22.717398-55.279001c11.199063-29.498848 14.402011-53.185316 14.402011-53.185316L320.40638 443.400622l0-29.318746 141.740188 0 0-55.93494-176.695305 1.289366 0-36.865629 176.512133 0 0-83.894735 92.789313 0 0 83.894735 189.366905 0 0 36.865629-189.366905 1.272993 0 52.091402 156.407236 1.281179c0 0-2.808976 29.256324-22.647813 82.441641-19.84293 53.185316-38.396495 80.317257-38.396495 80.317257l303.409265 99.573833c0 0-10.878768 28.482705-23.998577 53.435003C916.408563 754.801908 898.167107 781.699512 898.167107 781.699512z" p-id="2357"></path></svg>