<?xml version="1.0" standalone="no"?><!DOCTYPE svg PUBLIC "-//W3C//DTD SVG 1.1//EN" "http://www.w3.org/Graphics/SVG/1.1/DTD/svg11.dtd"><svg t="1490872549552" class="icon" style="" viewBox="0 0 1024 1024" version="1.1" xmlns="http://www.w3.org/2000/svg" p-id="995" xmlns:xlink="http://www.w3.org/1999/xlink" width="200" height="200"><defs><style type="text/css"></style></defs><path d="M748.238848 682.579968c0.29184-0.00512 0.582656-0.01024 0.873472-0.022528 0.267264-0.011264 0.531456-0.027648 0.795648-0.04608 0.24576-0.017408 0.49152-0.033792 0.73728-0.05632 0.320512-0.028672 0.64-0.064512 0.958464-0.103424 0.176128-0.021504 0.352256-0.041984 0.52736-0.06656 0.384-0.052224 0.764928-0.11264 1.143808-0.1792 0.1024-0.018432 0.2048-0.034816 0.306176-0.054272 0.443392-0.08192 0.881664-0.173056 1.317888-0.272384 0.036864-0.009216 0.073728-0.017408 0.110592-0.0256 2.491392-0.577536 4.86912-1.444864 7.098368-2.567168 0.053248-0.026624 0.106496-0.055296 0.15872-0.08192 0.377856-0.192512 0.75264-0.392192 1.123328-0.59904 0.125952-0.070656 0.249856-0.144384 0.37376-0.216064 0.290816-0.167936 0.57856-0.33792 0.864256-0.515072 0.20992-0.131072 0.417792-0.26624 0.62464-0.401408 0.192512-0.125952 0.382976-0.249856 0.572416-0.379904 0.295936-0.201728 0.586752-0.410624 0.876544-0.622592 0.094208-0.069632 0.190464-0.13824 0.283648-0.208896 0.369664-0.277504 0.733184-0.564224 1.09056-0.858112 0.013312-0.01024 0.024576-0.02048 0.036864-0.029696 3.093504-2.54464 5.738496-5.697536 7.73632-9.367552 0.027648-0.0512 0.054272-0.1024 0.08192-0.152576 0.205824-0.382976 0.405504-0.772096 0.596992-1.16736 0.054272-0.110592 0.106496-0.223232 0.15872-0.333824 0.16384-0.349184 0.324608-0.700416 0.477184-1.055744 0.064512-0.149504 0.124928-0.301056 0.187392-0.451584 0.095232-0.231424 0.195584-0.457728 0.285696-0.692224l122.591232-319.44704c0.861184-2.123776 1.499136-4.359168 1.888256-6.680576 0.008192-0.047104 0.018432-0.094208 0.0256-0.140288 0.064512-0.393216 0.116736-0.789504 0.166912-1.186816 0.02048-0.159744 0.041984-0.318464 0.060416-0.477184 0.032768-0.299008 0.057344-0.601088 0.080896-0.902144 0.021504-0.251904 0.043008-0.503808 0.058368-0.755712 0.014336-0.242688 0.021504-0.487424 0.028672-0.731136 0.011264-0.299008 0.021504-0.596992 0.022528-0.896 0.001024-0.078848 0.006144-0.156672 0.006144-0.23552 0-0.166912-0.01024-0.331776-0.013312-0.498688-0.004096-0.27648-0.009216-0.55296-0.021504-0.82944-0.012288-0.30208-0.03072-0.602112-0.052224-0.902144-0.014336-0.197632-0.026624-0.395264-0.045056-0.591872-0.033792-0.387072-0.075776-0.771072-0.123904-1.154048-0.012288-0.096256-0.022528-0.191488-0.03584-0.28672-0.76288-5.725184-3.03616-10.968064-6.411264-15.321088-0.007168-0.01024-0.01536-0.019456-0.022528-0.029696-0.293888-0.377856-0.594944-0.749568-0.90624-1.114112-0.052224-0.06144-0.105472-0.121856-0.157696-0.183296-0.272384-0.314368-0.548864-0.62464-0.832512-0.928768-0.089088-0.095232-0.180224-0.18944-0.27136-0.283648-0.258048-0.270336-0.520192-0.535552-0.78848-0.796672-0.11264-0.109568-0.228352-0.218112-0.342016-0.326656-0.26112-0.24576-0.524288-0.488448-0.791552-0.726016-0.11776-0.104448-0.237568-0.206848-0.357376-0.309248-0.282624-0.242688-0.569344-0.48128-0.86016-0.713728-0.103424-0.08192-0.205824-0.162816-0.310272-0.243712-0.326656-0.254976-0.658432-0.502784-0.994304-0.745472-0.06656-0.048128-0.135168-0.096256-0.201728-0.144384-0.39424-0.278528-0.7936-0.54784-1.200128-0.80896-0.009216-0.006144-0.018432-0.011264-0.026624-0.017408-3.95776-2.536448-8.510464-4.224-13.403136-4.80768-0.091136-0.011264-0.181248-0.024576-0.272384-0.034816-0.346112-0.038912-0.695296-0.06656-1.04448-0.094208-0.210944-0.017408-0.422912-0.03584-0.63488-0.048128-0.263168-0.01536-0.528384-0.022528-0.792576-0.031744-0.284672-0.009216-0.571392-0.019456-0.856064-0.021504-0.077824 0-0.1536-0.006144-0.232448-0.006144l-563.97824 0-12.539904-102.079488c-6.178816-50.321408-47.885312-87.595008-96.894976-89.808896-0.98816-0.09216-1.987584-0.144384-3.00032-0.144384l-98.125824 0c-17.673216 0-32 14.326784-32 32s14.326784 32 32 32l83.8656 0c27.488256 0 46.687232 20.096 54.603776 63.486976l31.208448 256.897024 0.008192 0 36.079616 293.70368c6.178816 50.322432 47.884288 87.596032 96.893952 89.80992 0.98816 0.09216 1.987584 0.144384 3.00032 0.144384l366.35648 0c17.673216 0 32-14.327808 32-32 0-17.67424-14.326784-32-32-32L415.946752 810.609664c-27.488256 0-46.686208-20.096-54.603776-63.486976l-7.83872-64.529408 394.242048 0C747.910144 682.592256 748.073984 682.582016 748.238848 682.579968zM330.134528 490.22464l-0.007168 0-15.678464-127.62624 509.554688 0-98.241536 255.993856L345.728 618.592256 330.134528 490.22464z" p-id="996"></path></svg>