<?xml version="1.0" standalone="no"?><!DOCTYPE svg PUBLIC "-//W3C//DTD SVG 1.1//EN" "http://www.w3.org/Graphics/SVG/1.1/DTD/svg11.dtd"><svg t="1490891664464" class="icon" style="" viewBox="0 0 1024 1024" version="1.1" xmlns="http://www.w3.org/2000/svg" p-id="3558" xmlns:xlink="http://www.w3.org/1999/xlink" width="200" height="200"><defs><style type="text/css"></style></defs><path d="M427.621 596.727c-42.525 23.615-48.835-13.255-48.835-13.255l-53.295-123.87c-20.5-58.86 17.75-26.545 17.75-26.545s32.825 24.735 57.735 39.81c24.895 15.07 53.275 4.42 53.275 4.42l348.416-160.178c-64.28-79.673-170.47-131.765-290.686-131.765-196.185 0-355.211 138.635-355.211 309.653 0 98.375 52.66 185.925 134.675 242.676l-14.79 84.69c0 0-7.21 24.73 17.78 13.26 17.03-7.82 60.44-35.84 86.28-52.89 40.63 14.095 84.89 21.93 131.285 21.93 196.171 0 355.231-138.635 355.231-309.661 0-49.54-13.4-96.32-37.135-137.845C719.082 423.681 460.891 578.292 427.621 596.727L427.621 596.727 427.621 596.727z" p-id="3559"></path></svg>